<svg width="13" height="13" viewBox="0 0 13 13" fill="none" xmlns="http://www.w3.org/2000/svg">
<path d="M2.56158 3.56288V12.5908H0.150232V3.56288H2.56158ZM4.49885e-05 1.20994C4.49885e-05 0.859507 0.12242 0.570257 0.36717 0.342194C0.61192 0.114132 0.940108 0.000100641 1.35173 0.000100641C1.7578 0.000100641 2.0832 0.114132 2.32795 0.342194C2.57826 0.570257 2.70342 0.859507 2.70342 1.20994C2.70342 1.56038 2.57826 1.84963 2.32795 2.07769C2.0832 2.30576 1.7578 2.41979 1.35173 2.41979C0.940108 2.41979 0.61192 2.30576 0.36717 2.07769C0.12242 1.84963 4.49885e-05 1.56038 4.49885e-05 1.20994ZM7.24209 5.49029V12.5908H4.83909V3.56288H7.0919L7.24209 5.49029ZM6.89165 7.75979H6.24084C6.24084 7.09229 6.32706 6.49154 6.49949 5.95754C6.67193 5.41798 6.9139 4.95907 7.2254 4.58082C7.5369 4.19701 7.90681 3.90498 8.33512 3.70473C8.76899 3.49891 9.25293 3.39601 9.78693 3.39601C10.2097 3.39601 10.5963 3.45719 10.9467 3.57957C11.2971 3.70194 11.5975 3.89663 11.8478 4.16363C12.1037 4.43063 12.2984 4.78385 12.4319 5.22329C12.571 5.66273 12.6405 6.19951 12.6405 6.83363V12.5908H10.2208V6.82529C10.2208 6.42479 10.1652 6.11329 10.0539 5.89079C9.94268 5.66829 9.77859 5.51254 9.56165 5.42354C9.35027 5.32898 9.08884 5.28169 8.77734 5.28169C8.45471 5.28169 8.17381 5.34566 7.93462 5.4736C7.70099 5.60154 7.50631 5.77954 7.35056 6.0076C7.20037 6.2301 7.08634 6.49154 7.00846 6.79191C6.93059 7.09229 6.89165 7.41491 6.89165 7.75979Z" fill="#2A2F2F"/>
</svg>
